<?xml version="1.0" encoding="UTF-8"?>
<svg id="Layer_1" data-name="Layer 1" xmlns="http://www.w3.org/2000/svg" viewBox="0 0 302 153">
  <defs>
    <style>
      .cls-1 {
        fill: #fff;
      }
    </style>
  </defs>
  <path class="cls-1" d="M86.39,56.56c-2.73-4.92-6.46-8.8-11.18-11.64-4.73-2.84-10.05-4.27-15.97-4.27-4.92,0-9.3,1-13.14,3-3.08,1.6-5.66,3.69-7.73,6.27v-7.88h-12.45v85.42h13.03v-30.28c1.91,2.32,4.27,4.19,7.09,5.61,3.96,2,8.36,3,13.2,3,5.99,0,11.34-1.44,16.02-4.32,4.69-2.89,8.4-6.79,11.13-11.71,2.73-4.91,4.09-10.45,4.09-16.6s-1.36-11.68-4.09-16.6ZM74.51,83.7c-1.65,3.11-3.9,5.56-6.74,7.32-2.84,1.77-6.11,2.65-9.8,2.65s-6.86-.88-9.74-2.65c-2.88-1.76-5.15-4.21-6.8-7.32-1.66-3.11-2.48-6.63-2.48-10.55s.82-7.41,2.48-10.49c1.65-3.07,3.92-5.49,6.8-7.26s6.13-2.65,9.74-2.65,6.96.88,9.8,2.65c2.84,1.77,5.09,4.19,6.74,7.26,1.66,3.08,2.48,6.57,2.48,10.49s-.82,7.44-2.48,10.55Z"/>
  <path class="cls-1" d="M204.15,105.37c-6.48,0-11.51-1.83-15.1-5.49-3.58-3.66-5.37-8.8-5.37-15.44v-29.96h-10.86v-11.67h1.72c2.9,0,5.15-.84,6.75-2.52,1.6-1.67,2.4-3.96,2.4-6.86v-4.81h12.92v14.19h14.07v11.67h-14.07v29.4c0,2.13.34,3.95,1.03,5.43.69,1.49,1.79,2.63,3.32,3.43,1.53.8,3.5,1.2,5.95,1.2.61,0,1.3-.04,2.06-.11.76-.07,1.49-.15,2.17-.23v11.09c-1.07.15-2.25.3-3.54.46-1.3.15-2.44.23-3.43.23Z"/>
  <path class="cls-1" d="M243.83,106.06c-5.95,0-11.38-1.41-16.3-4.23-4.92-2.82-8.83-6.67-11.72-11.55-2.9-4.88-4.35-10.41-4.35-16.58s1.45-11.8,4.35-16.64c2.9-4.84,6.79-8.65,11.67-11.44,4.88-2.78,10.33-4.18,16.35-4.18s11.57,1.39,16.41,4.18c4.84,2.78,8.69,6.6,11.55,11.44,2.86,4.84,4.29,10.39,4.29,16.64s-1.45,11.82-4.35,16.7c-2.9,4.88-6.79,8.71-11.67,11.49-4.88,2.78-10.3,4.18-16.24,4.18h0ZM243.83,94.05c3.66,0,6.9-.88,9.72-2.63s5.05-4.18,6.69-7.26c1.64-3.09,2.46-6.57,2.46-10.46s-.82-7.36-2.46-10.41c-1.64-3.05-3.87-5.45-6.69-7.2s-6.06-2.63-9.72-2.63-6.8.88-9.67,2.63c-2.86,1.76-5.11,4.16-6.75,7.2-1.64,3.05-2.46,6.52-2.46,10.41s.82,7.38,2.46,10.46c1.64,3.09,3.89,5.51,6.75,7.26,2.86,1.76,6.08,2.63,9.67,2.63Z"/>
  <path class="cls-1" d="M94.77,105.42V25.55h13.03v79.87h-13.03Z"/>
  <path class="cls-1" d="M168.52,42.75v34.78c0,5.35-1.37,10.58-3.95,15.12-1.85,3.26-4.31,6.17-7.34,8.52-4.08,3.18-8.71,5.05-13.89,5.62-.65.07-1.31.12-1.98.15-.67-.03-1.33-.08-1.98-.15-5.17-.56-9.8-2.44-13.89-5.62-3.02-2.36-5.49-5.27-7.34-8.52-2.58-4.54-3.95-9.77-3.95-15.12v-34.78h14.3v37.55c0,3.41,1.38,6.5,3.62,8.74,2.23,2.24,5.32,3.62,8.74,3.62.17-.01.34-.02.5-.03.17.01.33.02.5.03,3.41,0,6.5-1.38,8.74-3.62,2.24-2.23,3.62-5.32,3.62-8.74v-37.55s14.3,0,14.3,0Z"/>
</svg>